<svg xmlns="http://www.w3.org/2000/svg" viewBox="0 0 128 128" role="img" aria-labelledby="title">
  <title id="title">Algo Moves</title>
  <defs>
    <linearGradient id="bg" x1="12" y1="8" x2="116" y2="120" gradientUnits="userSpaceOnUse">
      <stop offset="0" stop-color="#123b36" />
      <stop offset="0.55" stop-color="#061615" />
      <stop offset="1" stop-color="#0b2522" />
    </linearGradient>
    <linearGradient id="move" x1="24" y1="98" x2="102" y2="28" gradientUnits="userSpaceOnUse">
      <stop offset="0" stop-color="#e5fff9" />
      <stop offset="0.58" stop-color="#58d1c3" />
      <stop offset="1" stop-color="#f8d679" />
    </linearGradient>
    <filter id="glow" x="-40%" y="-40%" width="180%" height="180%" color-interpolation-filters="sRGB">
      <feGaussianBlur stdDeviation="4" result="blur" />
      <feColorMatrix in="blur" type="matrix" values="0 0 0 0 0.227 0 0 0 0 0.604 0 0 0 0 0.561 0 0 0 0.55 0" />
      <feMerge>
        <feMergeNode />
        <feMergeNode in="SourceGraphic" />
      </feMerge>
    </filter>
  </defs>
  <rect width="128" height="128" rx="30" fill="url(#bg)" />
  <path d="M24 94C38 90 43 80 49 64C55 45 63 28 75 27C88 26 97 39 104 58" fill="none" stroke="#1f5f57" stroke-width="20" stroke-linecap="round" opacity="0.52" />
  <path d="M24 94C38 90 43 80 49 64C55 45 63 28 75 27C88 26 97 39 104 58" fill="none" stroke="url(#move)" stroke-width="10" stroke-linecap="round" filter="url(#glow)" />
  <path d="M45 88L63 38C66 29 78 29 82 38L102 90" fill="none" stroke="#e5fff9" stroke-width="9" stroke-linecap="round" stroke-linejoin="round" />
  <path d="M57 70H89" fill="none" stroke="#f8d679" stroke-width="8" stroke-linecap="round" />
  <circle cx="24" cy="94" r="10" fill="#e5fff9" />
  <circle cx="75" cy="27" r="9" fill="#f8d679" />
  <circle cx="104" cy="58" r="10" fill="#58d1c3" />
</svg>
